<svg xmlns="http://www.w3.org/2000/svg" viewBox="0 0 1024 1024" role="img" aria-label="Proof of Insight">
  <title>Proof of Insight</title>
  <rect width="1024" height="1024" fill="#FAF7F1"/>
  <g transform="translate(335.30 690.50) scale(0.35940 -0.35940)">
    <path d="M597 197 582 215Q682 227 735.5 278.0Q789 329 789 409Q789 469 758.5 520.5Q728 572 653.5 619.5Q579 667 447 715Q317 763 239.5 818.5Q162 874 128.0 942.0Q94 1010 94 1092Q94 1190 142.5 1264.0Q191 1338 274.5 1379.0Q358 1420 463 1420Q540 1420 589.5 1401.0Q639 1382 667.5 1362.0Q696 1342 707 1342Q716 1342 733.0 1362.0Q750 1382 766.0 1402.0Q782 1422 788 1422Q792 1422 795.0 1420.5Q798 1419 799 1413L888 1066Q890 1063 889.0 1060.5Q888 1058 886 1056Q880 1054 876 1061Q808 1193 743.5 1268.0Q679 1343 613.0 1374.0Q547 1405 472 1405Q373 1405 309.0 1344.0Q245 1283 245 1173Q245 1111 270.0 1057.5Q295 1004 356.0 957.5Q417 911 523 871Q659 822 736.5 765.5Q814 709 846.5 644.5Q879 580 879 504Q879 427 846.0 361.5Q813 296 750.0 253.0Q687 210 597 197ZM368 844 378 829Q295 815 238.0 760.0Q181 705 181 617Q181 555 213.5 503.5Q246 452 321.5 406.0Q397 360 526 313Q659 264 736.5 207.0Q814 150 847.0 84.0Q880 18 880 -60Q880 -149 837.5 -219.5Q795 -290 717.5 -330.5Q640 -371 532 -371Q454 -371 403.5 -351.0Q353 -331 324.0 -311.5Q295 -292 283 -292Q274 -292 257.5 -312.0Q241 -332 225.0 -352.5Q209 -373 201 -373Q197 -373 194.0 -370.5Q191 -368 190 -364L104 -31Q102 -24 107 -21Q111 -19 113.0 -21.0Q115 -23 117 -26Q181 -151 246.5 -223.0Q312 -295 381.0 -325.0Q450 -355 522 -355Q615 -355 672.5 -297.0Q730 -239 730 -141Q730 -81 704.5 -28.0Q679 25 618.0 70.5Q557 116 450 156Q317 206 239.5 261.0Q162 316 128.5 381.5Q95 447 95 528Q95 608 128.5 673.0Q162 738 223.0 782.5Q284 827 368 844Z" fill="#6B2C2C"/>
  </g>
</svg>
